<?xml version="1.0" encoding="utf-8"?>
<!-- Generator: Adobe Illustrator 25.3.1, SVG Export Plug-In . SVG Version: 6.00 Build 0)  -->
<svg version="1.1" id="Layer_1" xmlns="http://www.w3.org/2000/svg" xmlns:xlink="http://www.w3.org/1999/xlink" x="0px" y="0px"
	 viewBox="0 0 498.6 376.2" style="enable-background:new 0 0 498.6 376.2;" xml:space="preserve">
<style type="text/css">
	.st0{fill:#DC793C;}
	.st1{fill:#4A4A4A;}
	.st2{fill:none;stroke:#4A4A4A;stroke-width:4;stroke-miterlimit:10;}
	.st3{fill:#FFFFFF;}
</style>
<rect x="0.1" y="0.8" class="st0" width="498.1" height="375.2"/>
<circle class="st1" cx="250.5" cy="184.2" r="107.8"/>
<g>
	<g>
		<path class="st2" d="M383.6,239.7c-14.6,35.2-42.8,63.4-78,78"/>
		<g>
			<polygon class="st1" points="295,321.6 307.6,309.9 306.3,317.3 312.2,322.1 			"/>
		</g>
	</g>
</g>
<g>
	<g>
		<path class="st2" d="M305.1,50.2c35.8,14.5,64.5,42.9,79.2,78.5"/>
		<g>
			<polygon class="st1" points="388.2,139.3 376.5,126.7 383.9,127.9 388.7,122.1 			"/>
		</g>
	</g>
</g>
<g>
	<g>
		<path class="st2" d="M116.8,129c14.5-35.7,42.9-64.4,78.5-79.1"/>
		<g>
			<polygon class="st1" points="205.9,46 193.3,57.7 194.6,50.3 188.7,45.6 			"/>
		</g>
	</g>
</g>
<g>
	<g>
		<path class="st2" d="M194.6,317c-35.2-14.6-63.4-42.8-78-78"/>
		<g>
			<polygon class="st1" points="112.7,228.4 124.4,240.9 117,239.7 112.2,245.5 			"/>
		</g>
	</g>
</g>
<g>
	<path class="st3" d="M404.3,169.8h-0.2c-0.6,0-1.3,0.1-1.9,0.4c-0.2-2.6-2.5-4.6-5.2-4.4c-0.8,0.1-1.5,0.3-2.1,0.7
		c-1.2-2.1-3.8-2.9-6-2v-6.6c0-2.7-2.2-4.8-4.8-4.8c-2.7,0-4.8,2.2-4.8,4.8v17.8l-0.2-0.3l-0.1-0.1c-1.7-2-4.6-2.3-6.7-0.7
		c-0.1,0-0.1,0.1-0.2,0.1c-1.8,1.7-2.1,4.4-0.6,6.4l10.7,16.6v6.9c0,0.8,0.7,1.5,1.5,1.5h19.8c0.8,0,1.5-0.7,1.5-1.5v-6.8l3.8-5.4
		c0.2-0.3,0.3-0.6,0.3-0.9v-16.9C409.1,171.9,407,169.8,404.3,169.8z M406.1,191.1l-3.8,5.4c-0.2,0.3-0.3,0.6-0.3,0.9v5.8h-16.8
		v-5.8c0-0.3-0.1-0.6-0.2-0.8l-11-17l-0.1-0.1c-0.6-0.7-0.5-1.8,0.2-2.4c0.7-0.6,1.8-0.6,2.5,0.1c0,0,0,0,0,0l3,4.5
		c0.4,0.7,1.4,0.9,2.1,0.4c0.4-0.3,0.7-0.7,0.7-1.3v-22.9c0-1,0.8-1.8,1.8-1.8c1,0,1.8,0.8,1.8,1.8v18.2c0,0.8,0.7,1.5,1.5,1.5
		s1.5-0.7,1.5-1.5V169c0-1,0.8-1.8,1.8-1.8c1,0,1.8,0.8,1.8,1.8v7.2c0,0.8,0.7,1.5,1.5,1.5c0.8,0,1.5-0.7,1.5-1.5v-5.5
		c0-1,0.8-1.8,1.8-1.8c1,0,1.8,0.8,1.8,1.8v7.8c0,0.8,0.7,1.5,1.5,1.5s1.5-0.7,1.5-1.5v-1.7c0,0,0,0,0-0.1v-2c0-1,0.8-1.8,1.8-1.8h0
		h0.2c1,0,1.8,0.8,1.8,1.8l0,0V191.1z"/>
</g>
<g>
	<path class="st3" d="M275.3,132.6h-95.8c-3.8,0-6.8,3.1-6.8,6.8v68.4c0,3.8,3.1,6.8,6.8,6.8h31.9v18.2h-4.6c-1.3,0-2.3,1-2.3,2.3
		s1,2.3,2.3,2.3h41c1.3,0,2.3-1,2.3-2.3s-1-2.3-2.3-2.3h-4.6v-18.2h31.9c3.8,0,6.8-3.1,6.8-6.8v-68.4
		C282.1,135.6,279,132.6,275.3,132.6z M177.2,139.4c0-1.3,1-2.3,2.3-2.3h95.8c1.3,0,2.3,1,2.3,2.3v57H177.2V139.4z M238.8,232.9H216
		v-18.2h22.8V232.9z M277.5,207.8c0,1.3-1,2.3-2.3,2.3h-95.8c-1.3,0-2.3-1-2.3-2.3V201h100.3V207.8z"/>
	<path class="st3" d="M227.4,207.8c1.3,0,2.3-1,2.3-2.3s-1-2.3-2.3-2.3s-2.3,1-2.3,2.3S226.1,207.8,227.4,207.8z"/>
</g>
<g>
	<path class="st3" d="M260.7,303.4c-3-1.7-6.4-2.5-9.8-2.5c-3.7,0-7.4,1-10.6,3c-6,3.7-9.7,10.2-9.7,17.4l-4.4,7.8
		c-0.7,0.9-0.8,2-0.3,3c0.5,1,1.4,1.6,2.4,1.7l2,0.4v5c0,3.3,2.6,5.9,5.9,5.9h4.7v5.9c0,0.8,0.7,1.5,1.5,1.5h20.8
		c0.8,0,1.5-0.7,1.5-1.5v-4.8c0-5.3,1.3-10.4,3.8-14.8c1.7-3,2.6-6.5,2.6-10C271.2,313.9,267.1,307,260.7,303.4z M242.5,342h-6.2
		c-1.6,0-2.8-1.3-2.8-2.9v-6.2c0-0.7-0.5-1.4-1.2-1.5l-3.4-0.7c0,0,0,0,0,0c0,0,0,0,0,0l4.7-8.2c0.1-0.2,0.2-0.5,0.2-0.8l0-0.3
		c0-6.1,3.1-11.6,8.2-14.8c2.7-1.7,5.8-2.5,9-2.5c2.9,0,5.8,0.7,8.3,2.1c5.5,3.1,8.9,8.9,8.9,15.2c0,3-0.8,5.9-2.2,8.5
		c-2.7,4.9-4.1,10.5-4.1,16.3v3.3h-17.7v-5.9C244.1,342.7,243.4,342,242.5,342z"/>
	<path class="st3" d="M248.8,324.8h0.8v2.1c0,2.7,2.1,4.9,4.9,5v2.5c0,0.7,0.5,1.2,1.2,1.2s1.2-0.5,1.2-1.2v-2.7
		c0-1.2-1-2.2-2.2-2.2c-1.4,0-2.6-1.2-2.6-2.6v-2.1h1.2v1.3c0,1.2,1,2.2,2.2,2.2c1.4,0,2.6,1.2,2.6,2.6v3.4c0,0.7,0.5,1.2,1.2,1.2
		s1.2-0.5,1.2-1.2v-3.4c0-2.7-2.1-4.9-4.9-5v-1.1h4.7c0,0,0.1,0,0.1,0l0.1,0c0,0,0.1,0,0.1,0c3.3-0.3,5.7-3,5.7-6.2
		c0-2.3-1.2-4.4-3.3-5.5c0-3-2.4-5.4-5.4-5.4c-0.5,0-1,0.1-1.5,0.2c-0.9-1.1-2.3-1.8-3.8-1.8c-0.7,0-1.4,0.2-2.1,0.4
		c-0.8-0.4-1.7-0.6-2.6-0.6c-2.5,0-4.8,1.7-5.6,4.1c-3.2,0.7-5.5,3.5-5.5,6.8c0,3.8,3.1,6.9,6.9,6.9h2.9
		C246.9,324.5,247.8,324.8,248.8,324.8z M252.2,309.3c0.8,0,1.5,0.5,1.8,1.2c0.2,0.4,0.5,0.8,1,0.9c0.4,0.1,0.9,0.1,1.3-0.2
		c0.4-0.3,0.8-0.4,1.3-0.4c1.3,0,2.3,1,2.3,2.3c0,0.2,0,0.4-0.1,0.6c-0.2,0.8,0.3,1.6,1,1.8c1.4,0.4,2.3,1.7,2.3,3.1
		c0,1.7-1.2,3-2.9,3.1l-11.4,0c-0.4,0-0.7-0.3-0.7-0.7c0-0.4,0.3-0.7,0.7-0.7h5c0.8,0,1.5-0.7,1.5-1.5s-0.7-1.5-1.5-1.5h-5
		c-2,0-3.7,1.6-3.8,3.6h-1.6c-2.1,0-3.9-1.7-3.9-3.9c0-2.1,1.7-3.8,3.8-3.8c0.8,0,1.4-0.6,1.5-1.4c0.1-1.4,1.3-2.5,2.8-2.5
		c0.6,0,1.2,0.2,1.6,0.5c0.5,0.4,1.3,0.4,1.8,0C251.4,309.4,251.8,309.3,252.2,309.3z M260.2,322L260.2,322l0-0.2L260.2,322z"/>
</g>
<path class="st3" d="M126.4,157.5c3.4,5,5.4,10.7,5.7,16.7c0.1,1.1-0.8,2-1.8,2.1c-1.1,0.1-2-0.7-2.1-1.8
	c-0.3-5.3-2.1-10.4-5.1-14.7c-0.6-0.9-0.4-2.1,0.5-2.7C124.6,156.4,125.8,156.6,126.4,157.5z"/>
<path class="st3" d="M123.5,182.7c-0.3,1.1-1.4,1.7-2.4,1.4c-1.1-0.3-1.7-1.3-1.4-2.4c2.3-8.8-1.2-18.2-9-23.4
	c-0.9-0.6-1.2-1.8-0.5-2.7c0.6-0.9,1.8-1.2,2.7-0.5C122.2,161.2,126.2,172.4,123.5,182.7z"/>
<path class="st3" d="M97.6,158.6c-9.3,0.6-16.5,8.6-16.5,18.2v20.7c0,6.3,4.7,11.6,10.6,12.2c6.9,0.7,12.9-4.7,12.9-11.8
	c0-2.8,1.2-5.2,3.2-6.4c5.4-3.2,8.6-8.9,8.6-15.2C116.5,166.3,108.1,157.9,97.6,158.6z M105.9,188.1c-3.2,1.9-5.1,5.6-5.1,9.8
	c0,4.5-3.9,8.3-8.6,7.8c-4-0.4-7.1-4-7.1-8.2v-20.7c0-7.5,5.6-13.8,12.8-14.3c8-0.5,14.7,5.8,14.7,13.7
	C112.5,181.2,110,185.6,105.9,188.1z"/>
<path class="st3" d="M108.6,176.3c0,3.5-1.8,6.6-4.8,8.4c-0.3,0.2-0.7,0.3-1,0.3c-0.7,0-1.3-0.3-1.7-1c-0.6-0.9-0.3-2.1,0.7-2.7
	c1.8-1.1,2.9-3,2.9-5.1c0-3.4-2.9-6.1-6.3-5.9c-3,0.2-5.5,3.1-5.5,6.4c0,1.1-0.9,2-2,2s-2-0.9-2-2c0-5.4,4.1-10,9.2-10.3
	C103.7,166.1,108.6,170.6,108.6,176.3z"/>
<path class="st3" d="M96.8,188.1c0,2.3-1.1,4.4-2.8,5.6c-0.9,0.6-2.1,0.4-2.7-0.5c-0.6-0.9-0.4-2.1,0.5-2.7c0.7-0.5,1.1-1.3,1.1-2.3
	c0-1-0.4-1.8-1.1-2.3c-0.9-0.6-1.1-1.8-0.5-2.7c0.6-0.9,1.8-1.1,2.7-0.5C95.8,183.7,96.8,185.8,96.8,188.1z"/>
<g>
	<path class="st3" d="M281.5,42.6c-8.3-11.2-19.4-17.4-31.4-17.4c-11.9,0-23.1,6.2-31.4,17.4c-0.5,0.7-0.5,1.4,0,2
		c8.3,11.2,19.4,17.4,31.4,17.4c11.9,0,23.1-6.2,31.4-17.4C282,44,282,43.3,281.5,42.6z M250.1,58.6c-10.5,0-20.3-5.3-27.8-15
		c7.5-9.7,17.3-15,27.8-15c10.5,0,20.3,5.3,27.8,15C270.4,53.3,260.6,58.6,250.1,58.6z"/>
	<path class="st3" d="M250.1,30.7c-7.1,0-12.9,5.8-12.9,12.9c0,7.1,5.8,12.9,12.9,12.9c7.1,0,12.9-5.8,12.9-12.9
		C263,36.5,257.2,30.7,250.1,30.7z M250.1,53.2c-5.2,0-9.5-4.3-9.5-9.5s4.3-9.5,9.5-9.5s9.5,4.3,9.5,9.5S255.4,53.2,250.1,53.2z"/>
	<path class="st3" d="M250.1,37.2c-3.5,0-6.4,2.9-6.4,6.4s2.9,6.4,6.4,6.4s6.4-2.9,6.4-6.4S253.6,37.2,250.1,37.2z M252.2,45.7
		c-0.6,0.6-1.3,0.9-2.1,0.9c-1.6,0-3-1.4-3-3c0-0.2,0-0.5,0.1-0.7c0.3,0.3,0.8,0.4,1.1,0.4c0.5,0,0.8-0.2,1.2-0.5
		c0.6-0.6,0.7-1.5,0.2-2.2c0.1,0,0.2,0,0.3,0c1.6,0,3,1.4,3,3C253,44.4,252.8,45.1,252.2,45.7z"/>
</g>
<g>
	<path class="st3" d="M321.4,185.3h-24c-2,0-3.5,1.5-3.5,3.5v46.4c0,2,1.5,3.5,3.5,3.5h24c2,0,3.5-1.5,3.5-3.5v-46.4
		C324.9,186.8,323.4,185.3,321.4,185.3z M296.9,230.7h25v4.5c0,0.3-0.2,0.5-0.5,0.5h-24c-0.3,0-0.5-0.2-0.5-0.5V230.7z M321.9,195.2
		h-25v-6.4c0-0.3,0.2-0.5,0.5-0.5h24c0.3,0,0.5,0.2,0.5,0.5V195.2z M296.9,227.7v-29.5h25v29.5H296.9z"/>
	<rect x="304.9" y="189.9" class="st3" width="9" height="3"/>
</g>
</svg>
